<svg xmlns="http://www.w3.org/2000/svg" xmlns:xlink="http://www.w3.org/1999/xlink" viewBox="0 0 46.36 48.63"><defs><style>.cls-1{isolation:isolate;}.cls-2{opacity:0.8;mix-blend-mode:multiply;fill:url(#Degradado_sin_nombre_10);}.cls-3{fill:#8d378c;}.cls-4{fill:#fff;}</style><radialGradient id="Degradado_sin_nombre_10" cx="23.18" cy="25.45" r="23.18" gradientUnits="userSpaceOnUse"><stop offset="0" stop-color="#5a5a5a"/><stop offset="0.41" stop-color="#a8a8a8" stop-opacity="0.53"/><stop offset="0.79" stop-color="#e7e7e7" stop-opacity="0.14"/><stop offset="1" stop-color="#fff" stop-opacity="0"/></radialGradient></defs><g class="cls-1"><g id="Capa_2" data-name="Capa 2"><g id="Capa_1-2" data-name="Capa 1"><circle class="cls-2" cx="23.18" cy="25.45" r="23.18"/><circle class="cls-3" cx="17.53" cy="15.76" r="15.76"/><path class="cls-4" d="M10.92,12.83H14v9.81H10.92ZM12.45,8a1.77,1.77,0,1,1-1.77,1.77A1.77,1.77,0,0,1,12.45,8"/><path class="cls-4" d="M15.89,12.83h2.92v1.34h0a3.21,3.21,0,0,1,2.89-1.58c3.08,0,3.65,2,3.65,4.67v5.38h-3V17.87c0-1.14,0-2.6-1.59-2.6s-1.83,1.24-1.83,2.52v4.85h-3Z"/></g></g></g></svg>