<svg xmlns="http://www.w3.org/2000/svg" xmlns:xlink="http://www.w3.org/1999/xlink" viewBox="0 0 45.36 47.33"><defs><style>.cls-1{isolation:isolate;}.cls-2{opacity:0.8;mix-blend-mode:multiply;fill:url(#Degradado_sin_nombre_10);}.cls-3{fill:#fab815;}.cls-4{fill:#fff;}</style><radialGradient id="Degradado_sin_nombre_10" cx="22.72" cy="24.69" r="22.64" gradientUnits="userSpaceOnUse"><stop offset="0" stop-color="#5a5a5a"/><stop offset="0.41" stop-color="#a8a8a8" stop-opacity="0.53"/><stop offset="0.79" stop-color="#e7e7e7" stop-opacity="0.14"/><stop offset="1" stop-color="#fff" stop-opacity="0"/></radialGradient></defs><g class="cls-1"><g id="Capa_2" data-name="Capa 2"><g id="Capa_1-2" data-name="Capa 1"><circle class="cls-2" cx="22.72" cy="24.69" r="22.64"/><circle class="cls-3" cx="15.76" cy="15.76" r="15.76"/><path class="cls-4" d="M16.64,18.6a2.58,2.58,0,0,1-1.08,2.17,3.53,3.53,0,0,1-1.17.56,5,5,0,0,1-1.41.19H7.49V10.16h6.08a2.26,2.26,0,0,1,1.07.26,2.77,2.77,0,0,1,.82.66A3.27,3.27,0,0,1,16,12a3.22,3.22,0,0,1,.18,1.05,3.13,3.13,0,0,1-.41,1.56,2.52,2.52,0,0,1-1.22,1.08,2.9,2.9,0,0,1,1.54,1A3,3,0,0,1,16.64,18.6ZM9.7,12.05v2.87h2.94a1.28,1.28,0,0,0,.95-.39,1.37,1.37,0,0,0,.4-1,1.45,1.45,0,0,0-.36-1,1.17,1.17,0,0,0-.89-.39Zm4.72,6.13a1.62,1.62,0,0,0-.11-.58,1.57,1.57,0,0,0-.28-.49,1.2,1.2,0,0,0-.41-.33,1.18,1.18,0,0,0-.53-.12H9.7v3H13a1.38,1.38,0,0,0,.57-.11,1.39,1.39,0,0,0,.45-.31,1.54,1.54,0,0,0,.31-.47A1.62,1.62,0,0,0,14.42,18.18Z"/><path class="cls-4" d="M21.42,21.52a4.49,4.49,0,0,1-1.76-.33A4,4,0,0,1,17.45,19a4.33,4.33,0,0,1-.3-1.6,4.44,4.44,0,0,1,.29-1.63,4,4,0,0,1,2.21-2.27,4.46,4.46,0,0,1,1.79-.34,4.42,4.42,0,0,1,1.78.34,4.19,4.19,0,0,1,2.44,4.21,1.3,1.3,0,0,1,0,.31H19.35a2.53,2.53,0,0,0,.23.86,2,2,0,0,0,.48.63,2.2,2.2,0,0,0,.67.41,2.23,2.23,0,0,0,.77.14,2.38,2.38,0,0,0,1.17-.31,1.53,1.53,0,0,0,.75-.8l1.79.5a3.64,3.64,0,0,1-1.44,1.53A4.41,4.41,0,0,1,21.42,21.52Zm2.11-4.89a2.16,2.16,0,0,0-.67-1.47,2,2,0,0,0-1.45-.55,2.11,2.11,0,0,0-1.43.56,2.06,2.06,0,0,0-.45.63,2.26,2.26,0,0,0-.21.83Z"/><path class="cls-4" d="M18.69,10.7h5.44v1.35H18.69Z"/></g></g></g></svg>