<svg xmlns="http://www.w3.org/2000/svg" xmlns:xlink="http://www.w3.org/1999/xlink" viewBox="0 0 45.28 47.62"><defs><style>.cls-1{isolation:isolate;}.cls-2{opacity:0.8;mix-blend-mode:multiply;fill:url(#Degradado_sin_nombre_10);}.cls-3{fill:#fab815;}.cls-4{fill:#fff;}</style><radialGradient id="Degradado_sin_nombre_10" cx="22.64" cy="24.98" r="22.64" gradientUnits="userSpaceOnUse"><stop offset="0" stop-color="#5a5a5a"/><stop offset="0.41" stop-color="#a8a8a8" stop-opacity="0.53"/><stop offset="0.79" stop-color="#e7e7e7" stop-opacity="0.14"/><stop offset="1" stop-color="#fff" stop-opacity="0"/></radialGradient></defs><g class="cls-1"><g id="Capa_2" data-name="Capa 2"><g id="Capa_1-2" data-name="Capa 1"><circle class="cls-2" cx="22.64" cy="24.98" r="22.64"/><circle class="cls-3" cx="16.55" cy="15.76" r="15.76"/><path class="cls-4" d="M21.44,9.8a1.09,1.09,0,1,0,1.08,1.08A1.08,1.08,0,0,0,21.44,9.8Z"/><path class="cls-4" d="M16.62,11.19a4.55,4.55,0,1,0,4.55,4.55A4.55,4.55,0,0,0,16.62,11.19Zm0,7.47a2.92,2.92,0,1,1,2.92-2.92A2.92,2.92,0,0,1,16.62,18.66Z"/><path class="cls-4" d="M20.24,25H12.86a5.56,5.56,0,0,1-5.55-5.55V12.05A5.56,5.56,0,0,1,12.86,6.5h7.38a5.56,5.56,0,0,1,5.55,5.55v7.38A5.56,5.56,0,0,1,20.24,25ZM12.86,8.24A3.82,3.82,0,0,0,9,12.05v7.38a3.82,3.82,0,0,0,3.82,3.82h7.38a3.82,3.82,0,0,0,3.81-3.82V12.05a3.82,3.82,0,0,0-3.81-3.81Z"/></g></g></g></svg>