<svg xmlns="http://www.w3.org/2000/svg" xmlns:xlink="http://www.w3.org/1999/xlink" viewBox="0 0 45.28 47.33"><defs><style>.cls-1{isolation:isolate;}.cls-2{opacity:0.8;mix-blend-mode:multiply;fill:url(#Degradado_sin_nombre_10);}.cls-3{fill:#8d378c;}.cls-4,.cls-5{fill:#fff;}.cls-5{fill-rule:evenodd;}</style><radialGradient id="Degradado_sin_nombre_10" cx="22.64" cy="24.69" r="22.64" gradientUnits="userSpaceOnUse"><stop offset="0" stop-color="#5a5a5a"/><stop offset="0.41" stop-color="#a8a8a8" stop-opacity="0.53"/><stop offset="0.79" stop-color="#e7e7e7" stop-opacity="0.14"/><stop offset="1" stop-color="#fff" stop-opacity="0"/></radialGradient></defs><g class="cls-1"><g id="Capa_2" data-name="Capa 2"><g id="Capa_1-2" data-name="Capa 1"><circle class="cls-2" cx="22.64" cy="24.69" r="22.64"/><circle class="cls-3" cx="16.12" cy="15.76" r="15.76" transform="translate(-4.84 7.45) rotate(-22.71)"/><path class="cls-4" d="M7.6,24.69l1.32-4.91a9,9,0,0,1-1.14-4.37,9.08,9.08,0,1,1,4.75,8Zm5.18-3.16.31.18a7.4,7.4,0,1,0-2.52-2.5l.19.32L10,22.26Z"/><path class="cls-5" d="M20.2,16.67a1.49,1.49,0,0,0-1.29-.3c-.34.14-.56.67-.77.94a.33.33,0,0,1-.42.09,5.85,5.85,0,0,1-2.93-2.51.36.36,0,0,1,0-.49,2,2,0,0,0,.54-.87,1.94,1.94,0,0,0-.24-1,2.5,2.5,0,0,0-.76-1.14,1,1,0,0,0-1.12.17,2.27,2.27,0,0,0-.79,1.81,2.22,2.22,0,0,0,.07.57,4.61,4.61,0,0,0,.55,1.27,10,10,0,0,0,.57.87,9,9,0,0,0,2.49,2.32,7.64,7.64,0,0,0,1.56.73,3.32,3.32,0,0,0,1.81.29,2.2,2.2,0,0,0,1.64-1.22,1,1,0,0,0,.07-.62C21.13,17.13,20.55,16.87,20.2,16.67Z"/></g></g></g></svg>