<svg xmlns="http://www.w3.org/2000/svg" viewBox="0 0 52.97 27.61"><defs><style>.cls-1{fill:#8d378c;}.cls-2{fill:#f9d900;}</style></defs><g id="Capa_2" data-name="Capa 2"><g id="Capa_1-2" data-name="Capa 1"><path class="cls-1" d="M51,.34,28.83,22.55l-3.14,3.14h1.59L5.06,3.48,1.92.34A1.12,1.12,0,0,0,.33,1.93L22.55,24.14l3.14,3.14a1.14,1.14,0,0,0,1.59,0L49.5,5.07l3.13-3.14A1.12,1.12,0,0,0,51,.34Z"/><path class="cls-2" d="M38.36.34,25.69,13h1.59L14.6.33A1.13,1.13,0,0,0,13,1.92L25.69,14.6a1.14,1.14,0,0,0,1.59,0L40,1.93A1.12,1.12,0,0,0,38.36.34Z"/></g></g></svg>